<?xml version="1.0" encoding="UTF-8" standalone="no"?>
<!-- Created with Inkscape (http://www.inkscape.org/) -->
<svg
   version="1.1"
   id="svg1"
   width="1188.5468"
   height="448.81332"
   viewBox="0 0 1188.5468 448.81332"
   inkscape:version="1.4 (e7c3feb1, 2024-10-09)"
   xmlns:inkscape="http://www.inkscape.org/namespaces/inkscape"
   xmlns="http://www.w3.org/2000/svg"
   xmlns:svg="http://www.w3.org/2000/svg">
  <defs
     id="defs1" />
  <g
     id="g1"
     inkscape:groupmode="layer"
     inkscape:label="1">
    <g
       id="group-R5">
      <path
         id="path2"
         d="M 8914.12,0 H 0 V 3366.13 H 8914.12 V 0"
         style="fill:#ffffff;fill-opacity:1;fill-rule:nonzero;stroke:none"
         transform="matrix(0.13333333,0,0,-0.13333333,0,448.81333)" />
      <path
         id="path3"
         d="m 2021.54,2055.46 153.96,408.65 153.24,-408.65 z m 69.15,539.72 -325.12,-860.98 h 134.93 l 75.53,200.46 h 398.01 l 75.18,-200.46 h 134.93 l -325.12,860.98 h -168.34"
         style="fill:#1f4a58;fill-opacity:1;fill-rule:nonzero;stroke:none"
         transform="matrix(0.13333333,0,0,-0.13333333,0,448.81333)" />
      <path
         id="path4"
         d="m 2792.33,2539.92 h -113.09 v -64.25 c 0,-45.42 -5.58,-77.97 -16.7,-97.66 -11.15,-19.72 -35.14,-29.56 -71.97,-29.56 h -65.53 v -111.8 h 141.35 v -345.68 c 0,-53.97 13.27,-93.61 39.84,-118.86 26.54,-25.28 66.38,-37.91 119.51,-37.91 h 134.93 v 107.94 h -87.38 c -30,0 -50.99,5.56 -62.97,16.7 -12.01,11.13 -17.99,28.7 -17.99,52.69 v 325.12 h 168.34 v 111.8 h -168.34 v 191.47"
         style="fill:#1f4a58;fill-opacity:1;fill-rule:nonzero;stroke:none"
         transform="matrix(0.13333333,0,0,-0.13333333,0,448.81333)" />
      <path
         id="path5"
         d="m 3050.6,1734.2 h 125.94 v 860.98 H 3050.6 V 1734.2"
         style="fill:#1f4a58;fill-opacity:1;fill-rule:nonzero;stroke:none"
         transform="matrix(0.13333333,0,0,-0.13333333,0,448.81333)" />
      <path
         id="path6"
         d="m 3614.73,1871.05 c -31.7,-29.55 -73.24,-44.33 -124.65,-44.33 -36.84,0 -65.33,7.49 -85.45,22.49 -20.14,14.97 -30.2,36.62 -30.2,64.89 0,27.41 9.64,48.61 28.91,63.61 19.28,14.98 48.19,22.49 86.74,22.49 h 172.2 v -12.85 c 0,-47.99 -15.86,-86.74 -47.55,-116.3 z m 182.48,-12.85 c -7.71,8.13 -11.56,22.91 -11.56,44.34 v 240.3 c 0,68.53 -22.29,122.08 -66.83,160.63 -44.55,38.55 -105.81,57.83 -183.76,57.83 -78.83,0 -140.93,-19.92 -186.33,-59.75 -45.42,-39.84 -70.68,-92.75 -75.82,-158.71 h 115.66 c 5.98,35.98 20.34,63.81 43.04,83.53 22.7,19.7 55.46,29.56 98.31,29.56 41.96,0 74.54,-10.5 97.67,-31.49 23.12,-21 34.69,-52.49 34.69,-94.45 v -29.55 h -174.77 c -73.69,0 -131.07,-17.16 -172.19,-51.41 -41.12,-34.27 -61.69,-80.53 -61.69,-138.79 0,-38.55 9,-71.96 26.99,-100.22 17.99,-28.28 43.47,-50.12 76.46,-65.54 32.97,-15.43 70.88,-23.14 113.73,-23.14 47.1,0 87.58,7.71 121.44,23.14 33.83,15.42 61.04,38.55 81.6,69.39 11.12,-26.56 29.11,-46.48 53.97,-59.76 24.84,-13.29 55.25,-19.91 91.24,-19.91 h 35.98 v 111.79 h -15.42 c -20.56,0 -34.7,4.06 -42.41,12.21"
         style="fill:#1f4a58;fill-opacity:1;fill-rule:nonzero;stroke:none"
         transform="matrix(0.13333333,0,0,-0.13333333,0,448.81333)" />
      <path
         id="path7"
         d="m 4383.82,2031.68 c -27.84,29.56 -68.32,47.75 -121.44,54.62 l -146.49,20.56 c -25.7,4.28 -45.41,12.21 -59.11,23.77 -13.71,11.57 -20.56,27.19 -20.56,46.91 0,24.83 10.7,44.11 32.13,57.83 21.4,13.69 49.67,20.56 84.81,20.56 39.4,0 70.23,-8.36 92.53,-25.06 22.27,-16.71 37.26,-40.06 44.97,-70.04 h 116.94 c -8.58,59.11 -33.63,107.31 -75.18,144.57 -41.56,37.26 -100.03,55.9 -175.41,55.9 -74.53,0 -134.08,-17.35 -178.62,-52.05 -44.55,-34.69 -66.82,-80.75 -66.82,-138.14 0,-47.12 15.42,-85.45 46.26,-115.01 30.85,-29.56 76.24,-48.63 136.22,-57.18 l 122.07,-16.71 c 28.27,-4.3 49.48,-12 63.62,-23.13 14.13,-11.14 21.2,-26.99 21.2,-47.55 0,-26.56 -11.37,-47.35 -34.06,-62.32 -22.7,-15 -54.62,-22.49 -95.73,-22.49 -47.13,0 -84.17,9.64 -111.15,28.92 -26.99,19.27 -44.34,46.45 -52.05,81.59 h -116.94 c 8.56,-70.26 37.05,-123.8 85.46,-160.63 48.39,-36.84 112,-55.26 190.82,-55.26 84.81,0 149.07,17.35 192.76,52.05 43.69,34.69 65.54,82.44 65.54,143.28 0,47.11 -13.93,85.46 -41.77,115.01"
         style="fill:#1f4a58;fill-opacity:1;fill-rule:nonzero;stroke:none"
         transform="matrix(0.13333333,0,0,-0.13333333,0,448.81333)" />
      <path
         id="path8"
         d="m 4903.62,1778.53 c -63.41,38.11 -113.08,90.79 -149.07,158.06 -35.98,67.24 -53.97,143.28 -53.97,228.1 0,85.65 17.99,162.11 53.97,229.38 35.99,67.24 85.66,119.71 149.07,157.42 63.39,37.69 135.35,56.54 215.89,56.54 65.1,0 124.43,-12.43 177.97,-37.27 53.54,-24.85 97.87,-60.19 133.01,-106.01 35.12,-45.84 58.25,-99.17 69.39,-159.99 h -134.93 c -13.71,57.38 -42.4,102.16 -86.1,134.28 -43.69,32.13 -97.24,48.2 -160.63,48.2 -56.54,0 -106.46,-13.29 -149.71,-39.84 -43.27,-26.56 -76.9,-64.25 -100.87,-113.09 -24,-48.83 -35.98,-104.95 -35.98,-168.34 0,-64.25 11.98,-120.8 35.98,-169.62 23.97,-48.84 57.6,-86.75 100.87,-113.73 43.25,-26.98 93.17,-40.48 149.71,-40.48 64.25,0 118.43,16.26 162.56,48.83 44.12,32.55 72.61,77.1 85.46,133.65 h 134.93 c -11.15,-59.98 -34.5,-112.88 -70.04,-158.71 -35.56,-45.84 -80.31,-81.4 -134.29,-106.65 -53.97,-25.26 -113.08,-37.92 -177.33,-37.92 -80.54,0 -152.5,19.06 -215.89,57.19"
         style="fill:#1f4a58;fill-opacity:1;fill-rule:nonzero;stroke:none"
         transform="matrix(0.13333333,0,0,-0.13333333,0,448.81333)" />
      <path
         id="path9"
         d="m 5992.68,1887.76 c 32.97,38.11 49.47,89.31 49.47,153.56 0,64.25 -16.5,115.43 -49.47,153.56 -32.99,38.12 -76.9,57.19 -131.72,57.19 -54.84,0 -98.75,-19.07 -131.72,-57.19 -32.99,-38.13 -49.47,-89.31 -49.47,-153.56 0,-64.25 16.48,-115.45 49.47,-153.56 32.97,-38.13 76.88,-57.18 131.72,-57.18 54.82,0 98.73,19.05 131.72,57.18 z m -291.71,-125.3 c -46.7,27.41 -83.33,65.32 -109.87,113.73 -26.56,48.4 -39.84,103.45 -39.84,165.13 0,61.68 13.28,116.72 39.84,165.13 26.54,48.39 63.17,86.3 109.87,113.73 46.68,27.41 100.01,41.12 159.99,41.12 59.96,0 113.28,-13.71 159.99,-41.12 46.68,-27.43 83.3,-65.34 109.87,-113.73 26.54,-48.41 39.83,-103.45 39.83,-165.13 0,-61.68 -13.29,-116.73 -39.83,-165.13 -26.57,-48.41 -63.19,-86.32 -109.87,-113.73 -46.71,-27.42 -100.03,-41.12 -159.99,-41.12 -59.98,0 -113.31,13.7 -159.99,41.12"
         style="fill:#1f4a58;fill-opacity:1;fill-rule:nonzero;stroke:none"
         transform="matrix(0.13333333,0,0,-0.13333333,0,448.81333)" />
      <path
         id="path10"
         d="m 6666.04,1886.47 c 30.39,37.27 45.62,88.87 45.62,154.85 0,65.96 -15.23,117.59 -45.62,154.85 -30.43,37.27 -72.19,55.9 -125.3,55.9 -54.84,0 -97.66,-18.63 -128.51,-55.9 -30.83,-37.26 -46.26,-88.89 -46.26,-154.85 0,-65.98 15.43,-117.58 46.26,-154.85 30.85,-37.26 73.67,-55.89 128.51,-55.89 53.11,0 94.87,18.63 125.3,55.89 z m -426,461.98 h 123.37 v -78.39 c 23.97,29.98 52.46,52.68 85.45,68.11 32.97,15.42 69.6,23.13 109.87,23.13 54.82,0 103.45,-13.49 145.86,-40.48 42.4,-26.98 75.6,-64.89 99.59,-113.73 23.97,-48.83 35.98,-104.09 35.98,-165.77 0,-61.68 -12.01,-116.94 -35.98,-165.77 -23.99,-48.83 -57.19,-86.74 -99.59,-113.73 -42.41,-26.98 -91.04,-40.48 -145.86,-40.48 -38.55,0 -74.33,6.23 -107.3,18.64 -32.98,12.41 -61.48,30.62 -85.46,54.61 v -304.56 h -125.93 v 858.42"
         style="fill:#1f4a58;fill-opacity:1;fill-rule:nonzero;stroke:none"
         transform="matrix(0.13333333,0,0,-0.13333333,0,448.81333)" />
      <path
         id="path11"
         d="m 7036.76,1761.18 c -45.42,26.55 -80.53,64.03 -105.37,112.44 -24.86,48.39 -37.27,104.29 -37.27,167.7 0,63.39 12.63,119.29 37.91,167.7 25.26,48.39 60.82,85.88 106.66,112.44 45.82,26.55 97.86,39.84 156.13,39.84 77.11,0 140.72,-19.72 190.83,-59.11 50.12,-39.42 80.74,-94.67 91.88,-165.78 h -122.07 c -11.15,37.7 -30.42,66.39 -57.83,86.11 -27.43,19.69 -60.84,29.55 -100.24,29.55 -54.83,0 -98.1,-18.43 -129.79,-55.26 -31.7,-36.84 -47.54,-88.66 -47.54,-155.49 0,-66.82 15.84,-118.67 47.54,-155.49 31.69,-36.84 74.09,-55.25 127.22,-55.25 41.12,0 75.38,9.83 102.81,29.55 27.41,19.69 46.68,48.39 57.83,86.1 h 122.07 c -12.85,-71.96 -44.97,-127.44 -96.37,-166.42 -51.4,-38.99 -114.38,-58.47 -188.91,-58.47 -58.26,0 -110.09,13.28 -155.49,39.84"
         style="fill:#1f4a58;fill-opacity:1;fill-rule:nonzero;stroke:none"
         transform="matrix(0.13333333,0,0,-0.13333333,0,448.81333)" />
      <path
         id="path12"
         d="m 7965.2,1887.76 c 32.97,38.11 49.47,89.31 49.47,153.56 0,64.25 -16.5,115.43 -49.47,153.56 -32.99,38.12 -76.9,57.19 -131.72,57.19 -54.84,0 -98.75,-19.07 -131.72,-57.19 -32.99,-38.13 -49.47,-89.31 -49.47,-153.56 0,-64.25 16.48,-115.45 49.47,-153.56 32.97,-38.13 76.88,-57.18 131.72,-57.18 54.82,0 98.73,19.05 131.72,57.18 z m -291.71,-125.3 c -46.7,27.41 -83.33,65.32 -109.87,113.73 -26.56,48.4 -39.84,103.45 -39.84,165.13 0,61.68 13.28,116.72 39.84,165.13 26.54,48.39 63.17,86.3 109.87,113.73 46.68,27.41 100.01,41.12 159.99,41.12 59.96,0 113.29,-13.71 159.99,-41.12 46.68,-27.43 83.3,-65.34 109.87,-113.73 26.54,-48.41 39.83,-103.45 39.83,-165.13 0,-61.68 -13.29,-116.73 -39.83,-165.13 -26.57,-48.41 -63.19,-86.32 -109.87,-113.73 -46.7,-27.42 -100.03,-41.12 -159.99,-41.12 -59.98,0 -113.31,13.7 -159.99,41.12"
         style="fill:#1f4a58;fill-opacity:1;fill-rule:nonzero;stroke:none"
         transform="matrix(0.13333333,0,0,-0.13333333,0,448.81333)" />
      <path
         id="path13"
         d="m 1005.62,829.02 c -75.804,46.21 -133.866,110.199 -174.186,191.92 -40.325,81.71 -60.485,174.2 -60.485,277.42 0,107.51 22.028,203.22 66.129,287.09 44.074,83.87 105.641,149.19 184.672,195.97 79.03,46.77 169.07,70.16 270.16,70.16 111.81,0 208.58,-28.51 290.31,-85.49 81.7,-57 139.24,-138.17 172.58,-243.55 h -172.58 c -24.75,56.99 -61.84,100.81 -111.29,131.45 -49.47,30.65 -109.14,45.98 -179.02,45.98 -72.05,0 -134.96,-16.13 -188.71,-48.39 -53.78,-32.26 -95.16,-78.51 -124.192,-138.71 -29.028,-60.23 -43.547,-130.12 -43.547,-209.68 0,-77.41 14.519,-145.71 43.547,-204.83 29.032,-59.14 69.882,-105.11 122.582,-137.899 52.67,-32.813 112.9,-49.191 180.64,-49.191 63.43,0 119.6,13.152 168.54,39.511 48.92,26.34 86.54,59.399 112.9,99.189 26.34,39.77 39.52,77.95 39.52,114.52 v 177.41 h 158.06 V 770.949 h -151.61 v 145.16 c -25.81,-34.429 -55.92,-63.179 -90.32,-86.289 -34.42,-23.14 -72.33,-40.601 -113.71,-52.422 -41.4,-11.816 -86.28,-17.738 -134.67,-17.738 -101.08,0 -189.51,23.11 -265.32,69.36"
         style="fill:#9fa7b4;fill-opacity:1;fill-rule:nonzero;stroke:none"
         transform="matrix(0.13333333,0,0,-0.13333333,0,448.81333)" />
      <path
         id="path14"
         d="m 1896.73,1541.9 h 154.84 v -103.22 c 30.08,35.48 63.43,62.34 99.99,80.64 36.54,18.27 80.09,27.42 130.64,27.42 h 29.04 v -150 h -59.68 c -63.46,0 -112.1,-18.01 -145.97,-54.03 -33.87,-36.04 -50.8,-86.29 -50.8,-150.8 V 770.949 H 1896.73 V 1541.9"
         style="fill:#9fa7b4;fill-opacity:1;fill-rule:nonzero;stroke:none"
         transform="matrix(0.13333333,0,0,-0.13333333,0,448.81333)" />
      <path
         id="path15"
         d="m 2871.69,963.691 c 41.38,47.829 62.09,112.089 62.09,192.729 0,80.65 -20.71,144.88 -62.09,192.75 -41.41,47.82 -96.52,71.76 -165.32,71.76 -68.82,0 -123.94,-23.94 -165.32,-71.76 -41.4,-47.87 -62.09,-112.1 -62.09,-192.75 0,-80.64 20.69,-144.9 62.09,-192.729 41.38,-47.859 96.5,-71.769 165.32,-71.769 68.8,0 123.91,23.91 165.32,71.769 z M 2505.57,806.43 c -58.62,34.41 -104.59,81.98 -137.9,142.742 -33.34,60.728 -50,129.838 -50,207.248 0,77.42 16.66,146.5 50,207.26 33.31,60.73 79.28,108.31 137.9,142.74 58.59,34.4 125.52,51.61 200.8,51.61 75.25,0 142.18,-17.21 200.8,-51.61 58.6,-34.43 104.56,-82.01 137.9,-142.74 33.32,-60.76 50,-129.84 50,-207.26 0,-77.41 -16.68,-146.52 -50,-207.248 -33.34,-60.762 -79.3,-108.332 -137.9,-142.742 -58.62,-34.418 -125.55,-51.61 -200.8,-51.61 -75.28,0 -142.21,17.192 -200.8,51.61"
         style="fill:#9fa7b4;fill-opacity:1;fill-rule:nonzero;stroke:none"
         transform="matrix(0.13333333,0,0,-0.13333333,0,448.81333)" />
      <path
         id="path16"
         d="m 3253.13,837.082 c -51.62,54.84 -77.42,129.559 -77.42,224.188 v 480.63 h 158.06 v -458.06 c 0,-58.06 15.57,-104.578 46.77,-139.508 31.17,-34.953 72.58,-52.41 124.19,-52.41 58.07,0 104.28,19.348 138.71,58.058 34.4,38.711 51.61,90.32 51.61,154.83 v 437.09 h 158.06 V 770.949 h -154.83 v 87.102 c -30.12,-34.43 -64.52,-60.231 -103.23,-77.43 -38.7,-17.18 -82.81,-25.801 -132.25,-25.801 -88.18,0 -158.06,27.418 -209.67,82.262"
         style="fill:#9fa7b4;fill-opacity:1;fill-rule:nonzero;stroke:none"
         transform="matrix(0.13333333,0,0,-0.13333333,0,448.81333)" />
      <path
         id="path17"
         d="m 4516.78,962.082 c 38.16,46.768 57.26,111.528 57.26,194.338 0,82.79 -19.1,147.58 -57.26,194.35 -38.18,46.78 -90.59,70.16 -157.25,70.16 -68.83,0 -122.58,-23.38 -161.29,-70.16 -38.71,-46.77 -58.06,-111.56 -58.06,-194.35 0,-82.81 19.35,-147.57 58.06,-194.338 38.71,-46.781 92.46,-70.16 161.29,-70.16 66.66,0 119.07,23.379 157.25,70.16 z M 3982.12,1541.9 h 154.84 v -98.38 c 30.09,37.62 65.85,66.12 107.25,85.48 41.38,19.35 87.35,29.03 137.9,29.03 68.8,0 129.84,-16.94 183.06,-50.81 53.22,-33.87 94.88,-81.45 125,-142.73 30.09,-61.3 45.16,-130.65 45.16,-208.07 0,-77.41 -15.07,-146.76 -45.16,-208.061 -30.12,-61.277 -71.78,-108.859 -125,-142.73 -53.22,-33.867 -114.26,-50.809 -183.06,-50.809 -48.39,0 -93.29,7.809 -134.68,23.391 -41.4,15.57 -77.16,38.43 -107.25,68.539 V 464.5 h -158.06 v 1077.4"
         style="fill:#9fa7b4;fill-opacity:1;fill-rule:nonzero;stroke:none"
         transform="matrix(0.13333333,0,0,-0.13333333,0,448.81333)" />
      <path
         id="path18"
         d="m 1323.39,1154.81 h 187.09 v 187.1 h -187.09 v -187.1"
         style="fill:#deb16b;fill-opacity:1;fill-rule:nonzero;stroke:none"
         transform="matrix(0.13333333,0,0,-0.13333333,0,448.81333)" />
    </g>
  </g>
</svg>
